HIERARCHY
ROOT hip
{
  OFFSET 0.00112043 5.09927 -9.65472
  CHANNELS 6 Xposition Yposition Zposition Zrotation Xrotation Yrotation
  JOINT abdomen
  {
    OFFSET 0 -1.186 -1.5018
    CHANNELS 3 Zrotation Xrotation Yrotation
    JOINT abdomen2
    {
      OFFSET 0 9.964 0.2134
      CHANNELS 3 Zrotation Xrotation Yrotation
      JOINT chest
      {
        OFFSET 0 13.134 -3.2573
        CHANNELS 3 Zrotation Xrotation Yrotation
        JOINT neck
        {
          OFFSET 0 20.686 -1.6905
          CHANNELS 3 Zrotation Xrotation Yrotation
          JOINT head
          {
            OFFSET 0 7.238 -0.1237
            CHANNELS 3 Zrotation Xrotation Yrotation
            End Site
            {
              OFFSET 0 0 0
            }
          }
        }
        JOINT lCollar
        {
          OFFSET 1.7069 20.075 5.0056
          CHANNELS 3 Zrotation Xrotation Yrotation
          JOINT lShldr
          {
            OFFSET 13.6458 -0.047 -4.849
            CHANNELS 3 Zrotation Xrotation Yrotation
            JOINT lForeArm
            {
              OFFSET 28.3255 -0.9759 2.2888
              CHANNELS 3 Zrotation Xrotation Yrotation
              JOINT lHand
              {
                OFFSET 22.1583 -0.53 10.8316
                CHANNELS 3 Zrotation Xrotation Yrotation
                JOINT lThumb1
                {
                  OFFSET 0.786 0.112 2.5817
                  CHANNELS 3 Zrotation Xrotation Yrotation
                  JOINT lThumb2
                  {
                    OFFSET 0.3601 -0.878 4.2331
                    CHANNELS 3 Zrotation Xrotation Yrotation
                    JOINT lThumb2_End
                    {
                      OFFSET 1.8127 -1.216 2.2227
                      CHANNELS 3 Zrotation Xrotation Yrotation
                      End Site
                      {
                        OFFSET 0.0181 -0.0122 0.0222
                      }
                    }
                  }
                }
                JOINT lCarpal1
                {
                  OFFSET 0.9571 1.114 1.7695
                  CHANNELS 3 Zrotation Xrotation Yrotation
                  JOINT lIndex1
                  {
                    OFFSET 4.1246 0.487 4.1451
                    CHANNELS 3 Zrotation Xrotation Yrotation
                    JOINT lIndex2
                    {
                      OFFSET 3.4052 -1.454 2.7682
                      CHANNELS 3 Zrotation Xrotation Yrotation
                      JOINT lIndex2_End
                      {
                        OFFSET 1.4531 -1.795 1.2713
                        CHANNELS 3 Zrotation Xrotation Yrotation
                        End Site
                        {
                          OFFSET 0.0145 -0.0179 0.0127
                        }
                      }
                    }
                  }
                  JOINT lMid1
                  {
                    OFFSET 5.6954 0.21 2.1184
                    CHANNELS 3 Zrotation Xrotation Yrotation
                    JOINT lMid2
                    {
                      OFFSET 3.9766 -1.54 2.3863
                      CHANNELS 3 Zrotation Xrotation Yrotation
                      JOINT lMid2_End
                      {
                        OFFSET 1.4042 -1.926 1.125
                        CHANNELS 3 Zrotation Xrotation Yrotation
                        End Site
                        {
                          OFFSET 0.014 -0.0193 0.0113
                        }
                      }
                    }
                  }
                }
                JOINT lCarpal2
                {
                  OFFSET 2.0956 0.66 -0.3894
                  CHANNELS 3 Zrotation Xrotation Yrotation
                  JOINT lRing1
                  {
                    OFFSET 5.0395 -0.09 2.4971
                    CHANNELS 3 Zrotation Xrotation Yrotation
                    JOINT lRing2
                    {
                      OFFSET 3.7921 -1.552 1.4806
                      CHANNELS 3 Zrotation Xrotation Yrotation
                      JOINT lRing2_End
                      {
                        OFFSET 1.4655 -1.808 0.9609
                        CHANNELS 3 Zrotation Xrotation Yrotation
                        End Site
                        {
                          OFFSET 0.0147 -0.0181 0.0096
                        }
                      }
                    }
                  }
                  JOINT lPinky1
                  {
                    OFFSET 4.9141 -1.269 0.3591
                    CHANNELS 3 Zrotation Xrotation Yrotation
                    JOINT lPinky2
                    {
                      OFFSET 3.1477 -1.685 0.8462
                      CHANNELS 3 Zrotation Xrotation Yrotation
                      JOINT lPinky2_End
                      {
                        OFFSET 0.8055 -1.585 0.7955
                        CHANNELS 3 Zrotation Xrotation Yrotation
                        End Site
                        {
                          OFFSET 0.0081 -0.0158 0.008
                        }
                      }
                    }
                  }
                }
              }
            }
          }
        }
        JOINT rCollar
        {
          OFFSET -1.7069 20.075 5.0056
          CHANNELS 3 Zrotation Xrotation Yrotation
          JOINT rShldr
          {
            OFFSET -13.6458 -0.047 -4.849
            CHANNELS 3 Zrotation Xrotation Yrotation
            JOINT rForeArm
            {
              OFFSET -28.3255 -0.9759 2.2888
              CHANNELS 3 Zrotation Xrotation Yrotation
              JOINT rHand
              {
                OFFSET -22.1583 -0.53 10.8316
                CHANNELS 3 Zrotation Xrotation Yrotation
                JOINT rThumb1
                {
                  OFFSET -0.786 0.112 2.5817
                  CHANNELS 3 Zrotation Xrotation Yrotation
                  JOINT rThumb2
                  {
                    OFFSET -0.3601 -0.878 4.2331
                    CHANNELS 3 Zrotation Xrotation Yrotation
                    JOINT rThumb2_End
                    {
                      OFFSET -1.8127 -1.216 2.2227
                      CHANNELS 3 Zrotation Xrotation Yrotation
                      End Site
                      {
                        OFFSET -0.0181 -0.0122 0.0222
                      }
                    }
                  }
                }
                JOINT rCarpal1
                {
                  OFFSET -0.9571 1.114 1.7695
                  CHANNELS 3 Zrotation Xrotation Yrotation
                  JOINT rIndex1
                  {
                    OFFSET -4.1246 0.487 4.1451
                    CHANNELS 3 Zrotation Xrotation Yrotation
                    JOINT rIndex2
                    {
                      OFFSET -3.4052 -1.454 2.7682
                      CHANNELS 3 Zrotation Xrotation Yrotation
                      JOINT rIndex2_End
                      {
                        OFFSET -1.4531 -1.795 1.2713
                        CHANNELS 3 Zrotation Xrotation Yrotation
                        End Site
                        {
                          OFFSET -0.0145 -0.018 0.0127
                        }
                      }
                    }
                  }
                  JOINT rMid1
                  {
                    OFFSET -5.6954 0.21 2.1184
                    CHANNELS 3 Zrotation Xrotation Yrotation
                    JOINT rMid2
                    {
                      OFFSET -3.9766 -1.54 2.3863
                      CHANNELS 3 Zrotation Xrotation Yrotation
                      JOINT rMid2_End
                      {
                        OFFSET -1.4042 -1.926 1.125
                        CHANNELS 3 Zrotation Xrotation Yrotation
                        End Site
                        {
                          OFFSET -0.014 -0.0193 0.0113
                        }
                      }
                    }
                  }
                }
                JOINT rCarpal2
                {
                  OFFSET -2.0956 0.66 -0.3894
                  CHANNELS 3 Zrotation Xrotation Yrotation
                  JOINT rRing1
                  {
                    OFFSET -5.0395 -0.09 2.4971
                    CHANNELS 3 Zrotation Xrotation Yrotation
                    JOINT rRing2
                    {
                      OFFSET -3.7921 -1.552 1.4806
                      CHANNELS 3 Zrotation Xrotation Yrotation
                      JOINT rRing2_End
                      {
                        OFFSET -1.4655 -1.808 0.9609
                        CHANNELS 3 Zrotation Xrotation Yrotation
                        End Site
                        {
                          OFFSET -0.0147 -0.0181 0.0096
                        }
                      }
                    }
                  }
                  JOINT rPinky1
                  {
                    OFFSET -4.9141 -1.269 0.3592
                    CHANNELS 3 Zrotation Xrotation Yrotation
                    JOINT rPinky2
                    {
                      OFFSET -3.1477 -1.685 0.8462
                      CHANNELS 3 Zrotation Xrotation Yrotation
                      JOINT rPinky2_End
                      {
                        OFFSET -0.8055 -1.585 0.7955
                        CHANNELS 3 Zrotation Xrotation Yrotation
                        End Site
                        {
                          OFFSET -0.0081 -0.0158 0.008
                        }
                      }
                    }
                  }
                }
              }
            }
          }
        }
      }
    }
  }
  JOINT lThigh
  {
    OFFSET 8.367 -8.2066 0.5982
    CHANNELS 3 Zrotation Xrotation Yrotation
    JOINT lShin
    {
      OFFSET 2.1923 -43.463 -0.4932
      CHANNELS 3 Zrotation Xrotation Yrotation
      JOINT lFoot
      {
        OFFSET 0.7333 -45.8593 -2.6451
        CHANNELS 3 Zrotation Xrotation Yrotation
        End Site
        {
          OFFSET 2.6618 -4.2699 12.3931
        }
      }
    }
  }
  JOINT rThigh
  {
    OFFSET -8.367 -8.2066 0.5982
    CHANNELS 3 Zrotation Xrotation Yrotation
    JOINT rShin
    {
      OFFSET -2.1923 -43.463 -0.4931
      CHANNELS 3 Zrotation Xrotation Yrotation
      JOINT rFoot
      {
        OFFSET -0.7333 -45.8593 -2.6451
        CHANNELS 3 Zrotation Xrotation Yrotation
        End Site
        {
          OFFSET -2.6618 -4.2699 12.3931
        }
      }
    }
  }
}
MOTION
Frames:	4
Frame Time:	0.0333333
0 91.7903 2.51682 0 0 -0 0 0 -0 0 0 -0 0 0 -0 0 0 -0.00430691 -0 0 7.76503e-019 0 0 -0.00430691 1.66051 0.0835086 5.75766 -0.0175111 0.895433 15.7816 -3.47873e-016 -1.98785e-016 -3.18055e-015 -2.98177e-016 -1.98785e-016 -3.18055e-015 -9.93923e-017 -1.98785e-016 -3.18055e-015 -9.93923e-017 -1.98785e-016 -3.18055e-015 -2.98177e-016 -1.98785e-016 -3.18055e-015 -4.96962e-017 -3.97569e-016 6.36111e-015 -2.98177e-016 -1.98785e-016 -3.18055e-015 -2.98177e-016 -1.98785e-016 -3.18055e-015 -4.96962e-017 -3.97569e-016 6.36111e-015 -2.98177e-016 -1.98785e-016 -3.18055e-015 -2.98177e-016 -1.98785e-016 -3.18055e-015 -2.98177e-016 -1.98785e-016 -3.18055e-015 -4.96962e-017 -3.97569e-016 6.36111e-015 -2.98177e-016 -1.98785e-016 -3.18055e-015 -2.98177e-016 -1.98785e-016 -3.18055e-015 -4.96962e-017 -3.97569e-016 6.36111e-015 -2.98177e-016 -1.98785e-016 -3.18055e-015 -2.98177e-016 -1.98785e-016 -3.18055e-015 0 0 -0.00430691 -1.4496 0.0636048 -5.0245 -1.74811 1.20616 -16.8394 -1.10348e-032 1.98785e-016 3.18055e-015 -4.96962e-016 3.97569e-016 -0 -4.96962e-016 1.98785e-016 -3.18055e-015 4.96962e-016 -3.97569e-016 -0 -3.97569e-016 3.97569e-016 -0 -8.94531e-016 1.98785e-016 -0 3.97569e-016 -3.97569e-016 -0 2.20695e-032 -3.97569e-016 3.18055e-015 -8.94531e-016 1.98785e-016 -0 3.97569e-016 -3.97569e-016 -0 2.20695e-032 -3.97569e-016 3.18055e-015 -3.97569e-016 3.97569e-016 -0 -8.94531e-016 1.98785e-016 -0 3.97569e-016 -3.97569e-016 -0 2.20695e-032 -3.97569e-016 3.18055e-015 -8.94531e-016 1.98785e-016 -0 3.97569e-016 -3.97569e-016 -0 2.20695e-032 -3.97569e-016 3.18055e-015 -4.66111 -0.998717 0.12318 0.00986924 1.54847 0.176523 4.65186 -0.572283 -0.254274 4.66111 -0.998765 -0.123176 -0.00986867 1.54869 -0.176537 -4.65186 -0.572453 0.25427 
44.7989 -8.02663 74.7951 0 83.7908 -0 -0.337728 0.828082 -0.219189 -0.67239 1.65747 -0.433561 -0.67239 1.65746 -0.433561 0.0834971 1.76455 -46.7529 -0.662406 -16.1529 -28.0405 -8.13 0.956877 -5.98376 -34.2294 -48.9125 -3.15447 35.2545 -21.9853 -30.5623 -1.82571 -27.8747 -34.2873 -1.49089e-016 4.47266e-016 6.36111e-015 -1.98785e-016 0 3.18055e-015 -9.93923e-017 -1.49089e-016 -0 -1.98785e-016 4.47266e-016 6.36111e-015 1.10348e-031 -4.96962e-016 1.27222e-014 9.93923e-017 4.96962e-017 -0 9.93923e-017 1.49089e-016 3.18055e-015 1.10348e-031 -4.96962e-016 1.27222e-014 9.93923e-017 4.96962e-017 -0 9.93923e-017 1.49089e-016 3.18055e-015 -1.98785e-016 4.47266e-016 6.36111e-015 1.10348e-031 -4.96962e-016 1.27222e-014 9.93923e-017 4.96962e-017 -0 9.93923e-017 1.49089e-016 3.18055e-015 1.10348e-031 -4.96962e-016 1.27222e-014 9.93923e-017 4.96962e-017 -0 9.93923e-017 1.49089e-016 3.18055e-015 52.819 -11.4968 -9.78243 47.9514 -42.3692 16.7425 -35.1186 -23.8287 20.6606 3.05167 -7.86738 34.2403 -4.21567e-007 -5.00549e-008 -3.9787e-008 1.19271e-015 3.18055e-015 -3.18055e-015 -7.95139e-016 1.59028e-015 -3.18055e-015 7.95139e-016 1.59028e-015 -0 -4.21567e-007 -5.00549e-008 -3.9787e-008 3.97569e-016 0 -3.18055e-015 8.82781e-032 1.59028e-015 -3.18055e-015 -4.21567e-007 -5.00549e-008 -3.9787e-008 3.97569e-016 0 -3.18055e-015 8.82781e-032 1.59028e-015 -3.18055e-015 7.95139e-016 1.59028e-015 -0 -4.21567e-007 -5.00549e-008 -3.9787e-008 3.97569e-016 0 -3.18055e-015 8.82781e-032 1.59028e-015 -3.18055e-015 -4.21567e-007 -5.00549e-008 -3.9787e-008 3.97569e-016 0 -3.18055e-015 8.82781e-032 1.59028e-015 -3.18055e-015 2.8933 10.5295 49.1135 -5.00045 -2.18095 23.0439 12.0164 49.9615 -9.14222 -5.27794 5.71353 -46.4242 7.23607 9.70305 -23.1632 -8.1378 54.9688 -1.45349 
42.1611 -2.00222 71.4362 0 78.3326 -0 -0.341763 1.19927 -0.208692 -0.679376 2.39973 -0.410359 -0.679376 2.39977 -0.410359 -0.0029169 0.773718 -44.0016 -0.606755 -15.7168 -27.2869 -6.90542 2.45606 -5.7941 -31.493 -46.1191 -2.8191 33.9702 -21.5364 -27.6225 0.482812 -29.5427 -30.4233 -3.97569e-016 -1.98785e-016 3.18055e-015 -3.97569e-016 -3.97569e-016 -0 -3.97569e-016 3.97569e-016 6.36111e-015 1.10348e-032 -1.98785e-016 3.18055e-015 8.82781e-032 -7.95139e-016 6.36111e-015 -5.96354e-016 -1.98785e-016 9.54166e-015 -3.97569e-016 0 9.54166e-015 8.82781e-032 -7.95139e-016 6.36111e-015 -5.96354e-016 -1.98785e-016 9.54166e-015 -3.97569e-016 0 9.54166e-015 1.10348e-032 -1.98785e-016 3.18055e-015 8.82781e-032 -7.95139e-016 6.36111e-015 -5.96354e-016 -1.98785e-016 9.54166e-015 -3.97569e-016 0 9.54166e-015 8.82781e-032 -7.95139e-016 6.36111e-015 -5.96354e-016 -1.98785e-016 9.54166e-015 -3.97569e-016 0 9.54166e-015 49.5272 -11.3855 -6.73685 42.1636 -39.933 12.6509 -33.4935 -22.4446 17.9185 2.05936 -9.58819 31.8268 9.93923e-016 0 4.77083e-015 9.93923e-016 0 1.59028e-015 1.98785e-016 0 1.59028e-015 7.95139e-016 1.59028e-015 3.18055e-015 9.93923e-016 3.18055e-015 7.95139e-015 -0 0 1.59028e-015 3.97569e-016 0 1.59028e-015 9.93923e-016 3.18055e-015 7.95139e-015 -0 0 1.59028e-015 3.97569e-016 0 1.59028e-015 7.95139e-016 1.59028e-015 3.18055e-015 9.93923e-016 3.18055e-015 7.95139e-015 -0 0 1.59028e-015 3.97569e-016 0 1.59028e-015 9.93923e-016 3.18055e-015 7.95139e-015 -0 0 1.59028e-015 3.97569e-016 0 1.59028e-015 3.2634 11.0333 46.443 -5.0317 -1.61533 21.6714 11.1966 46.7491 -8.49211 -5.30709 6.45284 -45.4704 6.57114 9.52298 -22.8959 -11.885 51.1668 3.51299 
42.1651 -1.96507 71.4376 0 77.8326 -0 -0.369911 1.602 -0.204336 -0.734532 3.20524 -0.39855 -0.734532 3.20523 -0.39855 -0.00274105 -0.142657 -44.0016 -1.0248 -15.9901 -28.2444 -6.18886 3.92556 -5.96723 -31.5179 -46.1495 -3.44226 33.962 -21.5274 -27.6029 2.00313 -31.9506 -28.9711 -5.96354e-016 0 -0 -1.98785e-016 3.97569e-016 6.36111e-015 -3.97569e-016 0 6.36111e-015 -5.96354e-016 -3.97569e-016 -1.27222e-014 3.97569e-016 -7.95139e-016 1.59028e-014 -2.20695e-032 1.98785e-016 6.36111e-015 -5.96354e-016 1.98785e-016 6.36111e-015 3.97569e-016 -7.95139e-016 1.59028e-014 -2.20695e-032 1.98785e-016 6.36111e-015 -5.96354e-016 1.98785e-016 6.36111e-015 -5.96354e-016 -3.97569e-016 -1.27222e-014 3.97569e-016 -7.95139e-016 1.59028e-014 -2.20695e-032 1.98785e-016 6.36111e-015 -5.96354e-016 1.98785e-016 6.36111e-015 3.97569e-016 -7.95139e-016 1.59028e-014 -2.20695e-032 1.98785e-016 6.36111e-015 -5.96354e-016 1.98785e-016 6.36111e-015 49.269 -11.9145 -4.41859 40.5595 -39.6764 10.7195 -33.0767 -21.9384 17.6542 1.44674 -11.4406 31.4601 -2.50429e-007 7.62419e-007 5.99159e-007 5.96354e-016 -1.59028e-015 -0 2.50429e-007 -7.62419e-007 -5.99159e-007 1.98785e-016 -1.59028e-015 3.18055e-015 -2.50429e-007 7.62419e-007 5.99159e-007 0 0 -1.59028e-015 2.50429e-007 -7.62419e-007 -5.99159e-007 -2.50429e-007 7.62419e-007 5.99159e-007 0 0 -1.59028e-015 2.50429e-007 -7.62419e-007 -5.99159e-007 1.98785e-016 -1.59028e-015 3.18055e-015 -2.50429e-007 7.62419e-007 5.99159e-007 0 0 -1.59028e-015 2.50429e-007 -7.62419e-007 -5.99159e-007 -2.50429e-007 7.62419e-007 5.99159e-007 0 0 -1.59028e-015 2.50429e-007 -7.62419e-007 -5.99159e-007 3.46634 11.5751 46.6696 -5.29577 -1.36518 21.6805 11.5463 46.5887 -8.89193 -5.47723 7.26987 -47.145 6.56892 9.48404 -22.8952 -14.3231 50.9179 6.35907 
